<svg id="icon" xmlns="http://www.w3.org/2000/svg" viewBox="0 0 512 512"><polygon points="373.68 174.091 293.685 268.33 324.842 290.472 402.192 195.801 373.68 174.091" style="fill:#ff7b69"/><path d="M223.622,94.329,200.114,99.94l-3.009,54.713,14.805-3.534,30.275,129.87,24.3-5.8-30.276-129.87,14.806-3.534Z" style="fill:#a3bed8"/><path d="M219.64,286.367a11.2,11.2,0,0,1-11.081-2.774c-21.459-21.465-64.6-64.6-86.052-86.052a11.2,11.2,0,0,1-2.774-11.081,36.641,36.641,0,0,0-2.374-27.2c-8.919-16.889-32.772-27.2-52.457-15.825l20.575,20.575a13.442,13.442,0,0,1,.154,18.852c-3.305,3.516-10.164,10.375-13.679,13.679a13.442,13.442,0,0,1-18.852-.154L32.525,175.813C21.131,195.422,31.5,219.419,48.349,228.27a36.65,36.65,0,0,0,27.2,2.375,11.2,11.2,0,0,1,11.081,2.773c21.445,21.452,64.612,64.607,86.052,86.053a11.2,11.2,0,0,1,2.774,11.081,36.641,36.641,0,0,0,2.374,27.2c8.849,16.864,32.874,27.205,52.457,15.824L209.712,353a13.441,13.441,0,0,1-.153-18.852c3.3-3.517,10.163-10.376,13.679-13.679a13.439,13.439,0,0,1,18.851.154L262.664,341.2c11.386-19.651,1.04-43.576-15.824-52.457A36.643,36.643,0,0,0,219.64,286.367Z" style="fill:#a3bed8"/><path d="M344.881,125.577c13.325-10.022,47.191-12.523,68.69,4.537l25.282,19.853a10.226,10.226,0,0,1,3.837,6.818l1.105,9.123a10.242,10.242,0,0,0,12.651,8.7l5.725-1.431a10.244,10.244,0,0,1,8.772,1.852l9.078,7.06a11.073,11.073,0,0,1,1.892,15.6l-22.757,28.827a11.074,11.074,0,0,1-15.334,2L436.464,223c-4.013-2.718-4.171-7.917-4.777-12.229a10.243,10.243,0,0,0-12.869-8.423l-5.6,1.548a23.75,23.75,0,0,1-21.131-4.315l-20.115-16.024a21.468,21.468,0,0,1-8.079-17c.078-8.765-2.472-20.836-16.253-24.383C339.847,140.167,338.032,129.808,344.881,125.577Z" style="fill:#a3bed8"/><path d="M442.85,289.414H70.111a14.533,14.533,0,0,1-14.532-14.533V258.506h401.8v16.375A14.533,14.533,0,0,1,442.85,289.414Z" style="fill:#ffb14a"/><path d="M412.168,417.671H100.793A27.314,27.314,0,0,1,73.48,390.357V289.414h366V390.357A27.314,27.314,0,0,1,412.168,417.671Z" style="fill:#ffb14a"/><rect x="73.48" y="289.414" width="366.001" height="21.104" style="fill:#d37231"/><path d="M369.1,319.6H356.3a12.993,12.993,0,0,1-12.993-12.993v-48.1h38.786v48.1A12.993,12.993,0,0,1,369.1,319.6Z" style="fill:#53737f"/><path d="M156.661,319.6h-12.8a12.993,12.993,0,0,1-12.993-12.993v-48.1h38.786v48.1A12.993,12.993,0,0,1,156.661,319.6Z" style="fill:#53737f"/><path d="M74.787,185.7,67.9,192.359a7.656,7.656,0,0,1-10.689-.086L36.641,171.7a5.82,5.82,0,0,0-9.106,1.121c-8.834,14.722-5.691,29.414-1.5,39.147,8.771,21.471,32.72,30.335,51.136,24.268,3.81-1.232,6.1,2.134,8.437,4.4,5.544,5.28,13.533-2.65,8.232-8.231l-3.095-3.1a17.042,17.042,0,0,0-16.822-4.246,30.732,30.732,0,0,1-22.916-1.964c-12.384-6.561-19.988-22.03-16.538-37.1L48.984,200.5a19.35,19.35,0,0,0,27.016.22L82.951,194c.045-.044.089-.089.133-.134l6.729-6.951a19.349,19.349,0,0,0-.221-27.016L75.078,145.381c8.062-2.121,15.788-.148,21.372,2.257a30.487,30.487,0,0,1,17.693,37.2,17.045,17.045,0,0,0,4.248,16.821l51.03,51.028c-24.227,0-88.79,0-113.842,0a5.821,5.821,0,0,0-5.82,5.821v16.375a20.373,20.373,0,0,0,17.9,20.191v95.285a33.171,33.171,0,0,0,33.133,33.134H412.168A33.172,33.172,0,0,0,445.3,390.357V295.072a20.373,20.373,0,0,0,17.9-20.191V258.506a5.821,5.821,0,0,0-5.82-5.821c-39.527.017-103.788-.012-142.784,0l58.393-68.79a5.96,5.96,0,0,0,1.169-5.328,5.805,5.805,0,0,0-1.051-2.058,15.74,15.74,0,0,1-3.393-9.9c.142-15.944-7.19-26.625-20.647-30.076a3.419,3.419,0,0,1-2.58-2.849,3,3,0,0,1,1.439-3.147c16.505-10.87,43.683-9.525,62.047,4.156l25.281,19.852a4.39,4.39,0,0,1,1.656,2.942l1.1,9.124c.915,9.341,10.79,16.129,19.841,13.649l5.725-1.43a4.384,4.384,0,0,1,3.786.8l9.079,7.061a5.278,5.278,0,0,1,.9,7.4l-22.757,28.826a5.222,5.222,0,0,1-7.274.948l-7.359-5.52a4.384,4.384,0,0,1-1.722-2.912l-.785-5.483c-1.118-9.343-11.172-15.921-20.182-13.209l-5.6,1.547a17.983,17.983,0,0,1-15.953-3.257l-7.061-5.625a5.82,5.82,0,1,0-7.253,9.1l6.7,5.338-23.683,28.986c-3.156,3.611-.219,9.656,4.5,9.5a5.81,5.81,0,0,0,4.51-2.138l25.184-30.824a29.605,29.605,0,0,0,16.154.133l5.6-1.548a4.351,4.351,0,0,1,5.554,3.636l.785,5.483a15.953,15.953,0,0,0,6.262,10.579l7.359,5.519a16.8,16.8,0,0,0,23.4-3.047L486.481,201.3a16.97,16.97,0,0,0-2.887-23.8l-9.078-7.062c-6.369-4.93-12.4-3.465-19.48-1.472a4.359,4.359,0,0,1-5.464-3.757c-.985-7.193-.581-14.967-7.124-19.82-9.193-6.639-29.079-24.83-39.812-28.147-28.445-10.7-48.776-4.059-60.828,3.392a14.569,14.569,0,0,0-6.826,14.8,15.1,15.1,0,0,0,11.195,12.369c2.979.764,12.039,3.088,11.9,18.7a27.466,27.466,0,0,0,3.245,13.152L299.33,252.685H267.219L243.2,149.635l9.174-2.19a5.859,5.859,0,0,0,3.689-8.571l-27.4-47.455a5.82,5.82,0,0,0-6.392-2.751l-23.507,5.611A5.821,5.821,0,0,0,194.3,99.62l-3.009,54.713a5.86,5.86,0,0,0,7.163,5.981l9.114-2.176,17.35,74.422c1.911,7.405,12.891,4.9,11.336-2.643L217.578,149.8a5.818,5.818,0,0,0-7.019-4.339l-7.214,1.722,2.342-42.586,15.064-3.6,21.325,36.936-7.214,1.723a5.819,5.819,0,0,0-4.317,6.982l24.721,106.046H185.884l-59.261-59.26a5.4,5.4,0,0,1-1.3-5.341c6.064-18.432-2.8-42.367-24.268-51.137-9.733-4.193-24.426-7.335-39.147,1.5a5.86,5.86,0,0,0-1.121,9.107l20.575,20.574a7.656,7.656,0,0,1,.088,10.689Zm61.9,78.628h27.146v42.283a7.181,7.181,0,0,1-7.173,7.173h-12.8a7.181,7.181,0,0,1-7.173-7.173Zm212.439,0h27.146v42.283a7.181,7.181,0,0,1-7.173,7.173H356.3a7.182,7.182,0,0,1-7.173-7.173Zm-173.652,0H337.487v19.267H175.475Zm0,42.283V295.234H337.487v11.375A18.835,18.835,0,0,0,356.3,325.423h12.8a18.835,18.835,0,0,0,18.814-18.814V264.326h63.649v10.555a8.723,8.723,0,0,1-8.714,8.712H408.285a5.821,5.821,0,1,0,0,11.641H433.66v95.123a21.517,21.517,0,0,1-21.492,21.494H100.793A21.518,21.518,0,0,1,79.3,390.357V295.234h25.377a5.821,5.821,0,0,0,0-11.641H70.111a8.722,8.722,0,0,1-8.712-8.712V264.326h63.649v42.283a18.835,18.835,0,0,0,18.813,18.814h12.8A18.835,18.835,0,0,0,175.475,306.609Z" style="fill:#333"/></svg>